<svg width="163" height="44" viewBox="0 0 163 44" fill="none" xmlns="http://www.w3.org/2000/svg">
<g id="Logo">
<path id="Vector" d="M91.965 42.6829H99.2384C99.3091 42.6879 99.3802 42.6785 99.4471 42.6553C99.5141 42.6321 99.5757 42.5955 99.628 42.5477C99.6804 42.5 99.7225 42.4422 99.7517 42.3777C99.7809 42.3132 99.7967 42.2435 99.7981 42.1728V22.1241C99.7981 16.439 102.597 13.4433 107.428 13.4433C112.26 13.4433 115.007 16.439 115.007 22.1241V42.1753C115.008 42.2461 115.024 42.3158 115.053 42.3803C115.083 42.4447 115.125 42.5026 115.177 42.5503C115.229 42.598 115.291 42.6346 115.358 42.6578C115.425 42.6811 115.496 42.6904 115.567 42.6854H122.84C122.911 42.6904 122.982 42.6811 123.049 42.6578C123.116 42.6346 123.177 42.598 123.23 42.5503C123.282 42.5026 123.324 42.4447 123.353 42.3803C123.383 42.3158 123.398 42.2461 123.4 42.1753V22.1752C123.4 13.5951 118.619 6.08246 107.427 6.08246C96.2342 6.08246 91.4053 13.5951 91.4053 22.1752V42.1753C91.407 42.2458 91.423 42.3153 91.4524 42.3795C91.4818 42.4436 91.524 42.5012 91.5763 42.5486C91.6286 42.5961 91.69 42.6324 91.7568 42.6555C91.8236 42.6786 91.8944 42.6879 91.965 42.6829Z" fill="#00A868"/>
<path id="Vector_2" d="M41.913 43.1406C44.5581 43.1406 46.2871 42.8358 47.0499 42.531C47.1637 42.4857 47.2623 42.4092 47.3344 42.3104C47.4065 42.2116 47.4492 42.0944 47.4576 41.9725V35.9787C47.4576 35.6229 47.3042 35.4201 46.8468 35.4201C46.4902 35.4201 45.4731 35.6229 44.6591 35.6229C41.5054 35.6229 40.133 34.456 40.133 31.7141V14.8142H46.8468C46.9948 14.8129 47.1364 14.7536 47.241 14.6491C47.3457 14.5447 47.4051 14.4034 47.4064 14.2556V7.70709C47.4051 7.55936 47.3457 7.41805 47.241 7.31359C47.1364 7.20912 46.9948 7.14985 46.8468 7.14852H39.8787V1.46334C39.8787 0.853754 39.6231 0.599976 39.1657 0.599976H32.2985C31.7401 0.599976 31.4858 0.855029 31.4858 1.46334V32.5801C31.4858 40.145 35.7065 43.1406 41.913 43.1406Z" fill="#00A868"/>
<path id="Vector_3" d="M12.7183 43.5461C20.908 43.5461 26.758 38.5203 26.758 31.9717C26.758 24.6108 21.8741 22.4798 15.2114 21.0579L11.9044 20.3476C9.41257 19.789 8.03889 18.6209 8.03889 16.6416C8.03889 14.1038 10.5818 12.7329 14.092 12.7329C19.0258 12.7329 22.3826 14.9659 22.8912 14.9659C23.0326 14.9565 23.1687 14.9092 23.2853 14.8288C23.4018 14.7484 23.4944 14.638 23.5531 14.5094L24.8757 9.58553C25.1313 8.92494 25.0789 8.77318 24.6201 8.5194C21.6696 6.99672 18.5159 6.13336 14.0396 6.13336C5.749 6.13336 0 10.9054 0 17.2512C0 23.245 4.62961 26.5403 11.245 27.9635L14.6019 28.6739C17.2981 29.2324 18.8187 30.2986 18.8187 32.5826C18.8187 34.9176 16.9876 36.9478 12.6634 36.9478C6.55915 36.9478 2.38828 34.5121 1.72764 34.5121C1.32001 34.5121 1.16795 34.7148 1.01588 35.3742L0.150784 39.4869C-0.104784 40.349 0.150785 40.9076 0.710479 41.1614C2.79719 42.3282 8.4938 43.5461 12.7183 43.5461Z" fill="#00A868"/>
<path id="Vector_4" d="M68.2114 36.4901C62.87 36.4901 57.9886 32.4794 57.9886 24.9157C57.9886 17.3521 62.8713 13.4383 68.2114 13.4383C73.6026 13.4383 78.3842 17.347 78.3842 24.9157C78.3842 32.5304 73.6026 36.4901 68.2114 36.4901ZM68.2114 43.8C78.8928 43.8 86.6749 35.8308 86.6749 24.9157C86.6749 14.0006 78.8928 6.08246 68.2114 6.08246C57.5797 6.08246 49.7466 14.0019 49.7466 24.9157C49.7466 35.8295 57.5797 43.8 68.2114 43.8Z" fill="#00A868"/>
<path id="Vector_5" d="M163 24.5102C163 13.2878 156.539 6.08246 146.26 6.08246C136.596 6.08246 128.254 13.4944 128.254 24.764C128.254 36.7949 136.799 43.8 145.955 43.8C153.636 43.8 158.067 40.7789 160.808 37.0997C161.339 36.3868 161.447 36.0795 161.447 35.8805C161.447 35.6816 161.32 35.526 160.858 35.1154L157.653 32.3238C156.887 31.6645 156.631 31.4604 156.376 31.4604C156.12 31.4604 155.968 31.6135 155.765 31.8673C153.577 34.8119 150.526 36.4863 146.406 36.4863C141.209 36.4863 137.746 32.9627 136.867 27.2469H160.339C161.976 27.2508 163 26.7368 163 24.5102ZM145.959 13.1386C151.51 13.1386 154.447 16.8764 154.607 21.007H136.991C137.956 16.5716 140.972 13.1386 145.959 13.1386Z" fill="#00A868"/>
</g>
</svg>
